<svg width="184" height="40" viewBox="0 0 184 40" fill="none" xmlns="http://www.w3.org/2000/svg">
<path d="M14.9667 28.1014C14.9667 26.0987 15.1497 24.3779 15.5157 22.9391C15.9032 21.4808 16.5383 20.285 17.421 19.3517C18.3252 18.4184 19.5093 17.7282 20.9733 17.281C22.4373 16.8338 24.2458 16.6102 26.3987 16.6102C28.5731 16.6102 30.3816 16.8338 31.824 17.281C33.288 17.7282 34.4614 18.4184 35.3441 19.3517C36.2483 20.285 36.8834 21.4808 37.2494 22.9391C37.6369 24.3779 37.8307 26.0987 37.8307 28.1014C37.8307 30.0069 37.6585 31.679 37.314 33.1178C36.9695 34.5372 36.3559 35.7233 35.4732 36.676C34.6121 37.6287 33.4387 38.3482 31.9532 38.8342C30.4892 39.3009 28.6377 39.5342 26.3987 39.5342C24.1596 39.5342 22.2974 39.3009 20.8119 38.8342C19.3479 38.3482 18.1745 37.6287 17.2918 36.676C16.4307 35.7233 15.8278 34.5372 15.4834 33.1178C15.1389 31.679 14.9667 30.0069 14.9667 28.1014ZM23.2985 24.4557V32.3833C23.2985 33.0306 23.8232 33.5553 24.4705 33.5553H26.5279C27.6043 33.5553 28.3686 33.4484 28.8207 33.2345C29.2944 33.0012 29.5312 32.4859 29.5312 31.6887V23.7611C29.5312 23.1138 29.0065 22.5891 28.3592 22.5891H26.2695C25.2361 22.5891 24.4826 22.7058 24.0089 22.9391C23.5353 23.153 23.2985 23.6585 23.2985 24.4557Z" fill="#FFDD00"/>
<path d="M54.4575 39.0092H41.7108C41.0636 39.0092 40.5388 38.4845 40.5388 37.8373V18.3071C40.5388 17.6599 41.0636 17.1351 41.7108 17.1351H53.1011C55.4263 17.1351 57.084 17.5435 58.0744 18.3601C59.0647 19.1767 59.5599 20.3628 59.5599 21.9183C59.5599 23.4932 59.2477 24.7085 58.6234 25.564C58.0173 26.3755 57.1983 26.9215 56.1662 27.2017C56.1111 27.2167 56.0722 27.2665 56.0722 27.3236C56.0722 27.3852 56.1179 27.4376 56.1786 27.4478C59.2294 27.9609 60.7548 29.88 60.7548 33.2053C60.7548 34.9553 60.2381 36.3649 59.2047 37.4343C58.1928 38.4843 56.6104 39.0092 54.4575 39.0092ZM51.325 30.2888H49.4613C48.8141 30.2888 48.2894 30.8135 48.2894 31.4608V32.7041C48.2894 33.3514 48.8141 33.8761 49.4613 33.8761H51.2604C52.3584 33.8761 52.9074 33.2734 52.9074 32.0679C52.9074 30.8818 52.3799 30.2888 51.325 30.2888ZM50.7437 21.9183H49.4613C48.8141 21.9183 48.2894 22.443 48.2894 23.0903V24.0128C48.2894 24.6601 48.8141 25.1848 49.4613 25.1848H50.6791C51.6694 25.1848 52.1646 24.6404 52.1646 23.5516C52.1646 22.4627 51.691 21.9183 50.7437 21.9183Z" fill="#FFDD00"/>
<path d="M94.1244 28.1014C94.1244 26.0987 94.3074 24.3779 94.6734 22.9391C95.0609 21.4808 95.696 20.285 96.5787 19.3517C97.4829 18.4184 98.667 17.7282 100.131 17.281C101.595 16.8338 103.403 16.6102 105.556 16.6102C107.731 16.6102 109.539 16.8338 110.982 17.281C112.446 17.7282 113.619 18.4184 114.502 19.3517C115.406 20.285 116.041 21.4808 116.407 22.9391C116.795 24.3779 116.988 26.0987 116.988 28.1014C116.988 30.0069 116.816 31.679 116.472 33.1178C116.127 34.5372 115.514 35.7233 114.631 36.676C113.77 37.6287 112.596 38.3482 111.111 38.8342C109.647 39.3009 107.795 39.5342 105.556 39.5342C103.317 39.5342 101.455 39.3009 99.9696 38.8342C98.5056 38.3482 97.3322 37.6287 96.4495 36.676C95.5884 35.7233 94.9855 34.5372 94.6411 33.1178C94.2966 31.679 94.1244 30.0069 94.1244 28.1014ZM102.456 24.4557V32.3833C102.456 33.0306 102.981 33.5553 103.628 33.5553H105.686C106.762 33.5553 107.526 33.4484 107.978 33.2345C108.452 33.0012 108.689 32.4859 108.689 31.6887V23.7611C108.689 23.1138 108.164 22.5891 107.517 22.5891H105.427C104.394 22.5891 103.64 22.7058 103.167 22.9391C102.693 23.153 102.456 23.6585 102.456 24.4557Z" fill="#FFDD00"/>
<path d="M137.722 31.0651C137.17 31.4787 136.915 32.2335 137.259 32.8311L139.805 37.2525C140.255 38.0338 139.691 39.0092 138.79 39.0092H133.024C132.576 39.0092 132.167 38.7533 131.97 38.3501L129.409 33.0864C129.236 32.731 128.875 32.5054 128.48 32.5054C127.91 32.5054 127.447 32.9679 127.447 33.5384V37.8373C127.447 38.4845 126.922 39.0092 126.275 39.0092H120.869C120.221 39.0092 119.697 38.4845 119.697 37.8373V18.3071C119.697 17.6599 120.221 17.1351 120.869 17.1351H131.904C137.458 17.1351 140.235 19.692 140.235 24.8057C140.235 27.723 139.398 29.8095 137.722 31.0651ZM129.223 22.7349H128.619C127.972 22.7349 127.447 23.2596 127.447 23.9069V25.9378C127.447 26.585 127.972 27.1097 128.619 27.1097H129.223C130.171 27.1097 130.849 27.0223 131.258 26.8473C131.688 26.6723 131.904 26.2737 131.904 25.6515V24.1932C131.904 23.571 131.688 23.1724 131.258 22.9974C130.849 22.8224 130.171 22.7349 129.223 22.7349Z" fill="#FFDD00"/>
<path d="M157.868 33.4095C158.515 33.4095 159.04 33.9342 159.04 34.5815V37.8373C159.04 38.4845 158.515 39.0092 157.868 39.0092H144.71C144.063 39.0092 143.538 38.4845 143.538 37.8373V18.3071C143.538 17.6599 144.063 17.1351 144.71 17.1351H150.117C150.764 17.1351 151.289 17.6599 151.289 18.3071V32.2375C151.289 32.8848 151.814 33.4095 152.461 33.4095H157.868Z" fill="#FFDD00"/>
<path d="M172.018 39.0092H162.34C161.692 39.0092 161.168 38.4845 161.168 37.8373V18.3071C161.168 17.6599 161.692 17.1351 162.34 17.1351H172.018C174.193 17.1351 176.012 17.3393 177.476 17.7476C178.94 18.1365 180.113 18.7684 180.996 19.6434C181.879 20.5183 182.503 21.6461 182.869 23.0266C183.257 24.4071 183.45 26.0792 183.45 28.043C183.45 30.0069 183.257 31.6887 182.869 33.0887C182.503 34.4692 181.879 35.5969 180.996 36.4718C180.113 37.3468 178.94 37.9885 177.476 38.3968C176.012 38.8051 174.193 39.0092 172.018 39.0092ZM172.148 22.7349H170.09C169.443 22.7349 168.918 23.2596 168.918 23.9069V32.2375C168.918 32.8848 169.443 33.4095 170.09 33.4095H172.148C173.224 33.4095 173.988 33.3025 174.44 33.0887C174.914 32.8553 175.151 32.3401 175.151 31.5429V24.6015C175.151 23.8043 174.914 23.2988 174.44 23.0849C173.988 22.8516 173.224 22.7349 172.148 22.7349Z" fill="#FFDD00"/>
<path d="M6.814 39.0092H1.796C1.21082 39.0092 0.715308 38.5776 0.635079 37.9979L0.184452 34.7422C0.0869522 34.0377 0.634219 33.4095 1.34537 33.4095H3.22938C3.9829 33.4095 4.49961 33.3025 4.77949 33.0887C4.97325 32.9137 5.07013 32.6706 5.07013 32.3595V15.9373C5.07013 15.29 4.54541 14.7653 3.89814 14.7653L1.17199 14.7653C0.524716 14.7653 0 14.2406 0 13.5933V10.3375C0 9.69023 0.524718 9.16551 1.17199 9.16551L12.8206 9.16552H69.0282C69.6086 9.16552 70.1015 9.59022 70.1873 10.1642L73.0393 29.234C73.0497 29.3038 73.1097 29.3555 73.1803 29.3555C73.2419 29.3555 73.2965 29.316 73.3158 29.2575L77.039 17.9408C77.1972 17.4601 77.6461 17.1351 78.1523 17.1351H79.1341C79.6413 17.1351 80.0909 17.4614 80.2483 17.9435L83.9346 29.2387C83.9574 29.3084 84.0224 29.3555 84.0956 29.3555C84.159 29.3555 84.2171 29.3201 84.2461 29.2638L90.1877 17.7494C90.3744 17.3877 90.7819 17.1977 91.179 17.2874C91.6865 17.402 91.9893 17.924 91.8367 18.4214L85.7769 38.1809C85.6259 38.6732 85.1713 39.0092 84.6564 39.0092H83.7733C83.3312 39.0092 82.9267 38.7604 82.7273 38.3658L80.1157 33.1968C79.6697 32.3142 78.3985 32.3466 77.998 33.2507L75.7561 38.3119C75.5683 38.7359 75.1482 39.0092 74.6845 39.0092H67.9362C67.368 39.0092 66.8816 38.6016 66.7823 38.042L62.8229 15.7325C62.7236 15.173 62.2372 14.7653 61.669 14.7653H13.9926C13.3454 14.7653 12.8206 15.29 12.8206 15.9373V33.2345C12.8206 35.14 12.3039 36.5788 11.2705 37.551C10.2587 38.5232 8.77316 39.0092 6.814 39.0092Z" fill="#FFDD00"/>
<path d="M94.7788 5.02145C95.2379 4.34835 96.2955 4.65871 96.2288 5.44694L95.9419 8.8379C95.9177 9.12468 96.0607 9.39283 96.3127 9.53303L99.2862 11.1871C100.006 11.5877 99.6132 12.6803 98.7699 12.6221L95.2878 12.3818C94.9927 12.3614 94.7024 12.5024 94.5354 12.7473L92.5606 15.643C92.1015 16.3161 91.0439 16.0057 91.1106 15.2175L91.3975 11.8265C91.4218 11.5397 91.2787 11.2716 91.0267 11.1314L88.0532 9.47736C87.3331 9.07676 87.7262 7.98412 88.5695 8.04232L92.0516 8.28262C92.3467 8.30299 92.637 8.16198 92.804 7.9171L94.7788 5.02145Z" fill="url(#paint0_linear_1_4)"/>
<path d="M114.504 6.43621V9.59745H115.325V11.2382H114.504V14.7495H112.448V6.43621H114.504ZM106.957 14.4214L106.738 12.7806C107.139 12.7806 107.548 12.6384 107.963 12.354C108.379 12.0696 108.733 11.5846 109.024 10.8991C109.316 10.2064 109.462 9.29482 109.462 8.1645H106.847V6.52372H111.518V8.1645C111.518 9.42608 111.325 10.5309 110.939 11.4789C110.559 12.4196 110.023 13.1452 109.331 13.6557C108.645 14.1661 107.854 14.4214 106.957 14.4214ZM118.376 10.1225C118.085 10.4142 117.749 10.6403 117.37 10.8007C116.998 10.9538 116.608 11.0304 116.2 11.0304L115.762 9.38962C116.207 9.38962 116.582 9.22919 116.889 8.90832C117.195 8.58016 117.348 8.09522 117.348 7.45349V6.43621H119.394V7.45349C119.394 8.09522 119.547 8.58016 119.853 8.90832C120.159 9.22919 120.535 9.38962 120.98 9.38962L120.542 11.0304C120.134 11.0304 119.74 10.9538 119.361 10.8007C118.989 10.6403 118.661 10.4142 118.376 10.1225ZM124.458 7.92385V9.45525H123.638V10.9757H121.581V6.43621H123.638V7.92385H124.458ZM121.92 11.3804C122.416 11.3804 122.825 11.5409 123.146 11.8617C123.474 12.1753 123.638 12.5764 123.638 13.065C123.638 13.5536 123.474 13.9583 123.146 14.2792C122.825 14.5927 122.416 14.7495 121.92 14.7495H117.917C117.421 14.7495 117.009 14.5927 116.681 14.2792C116.36 13.9583 116.2 13.5536 116.2 13.065C116.2 12.5764 116.36 12.1753 116.681 11.8617C117.009 11.5409 117.421 11.3804 117.917 11.3804H121.92ZM121.373 13.2728C121.432 13.2728 121.479 13.2546 121.516 13.2181C121.559 13.1744 121.581 13.1233 121.581 13.065C121.581 13.0066 121.559 12.9592 121.516 12.9228C121.479 12.879 121.432 12.8571 121.373 12.8571H118.464C118.405 12.8571 118.354 12.879 118.311 12.9228C118.274 12.9592 118.256 13.0066 118.256 13.065C118.256 13.1233 118.274 13.1744 118.311 13.2181C118.354 13.2546 118.405 13.2728 118.464 13.2728H121.373ZM129.818 6.87375V8.20825H125.114V6.87375H126.438V6.21744H128.494V6.87375H129.818ZM130.736 6.43621H132.793V12.0586H130.736V11.2382H130.025V9.70684H130.736V9.15991H130.025V7.62851H130.736V6.43621ZM127.061 11.6867C126.507 11.6867 126.062 11.5372 125.727 11.2382C125.391 10.9392 125.223 10.5418 125.223 10.0459C125.223 9.55005 125.391 9.15262 125.727 8.85363C126.062 8.55464 126.507 8.40515 127.061 8.40515H127.871C128.425 8.40515 128.87 8.55464 129.205 8.85363C129.54 9.15262 129.708 9.55005 129.708 10.0459C129.708 10.5418 129.54 10.9392 129.205 11.2382C128.87 11.5372 128.425 11.6867 127.871 11.6867H127.061ZM127.324 9.76153C127.243 9.76153 127.178 9.78705 127.127 9.8381C127.076 9.88915 127.05 9.95478 127.05 10.035C127.05 10.1152 127.076 10.1808 127.127 10.2319C127.178 10.2829 127.243 10.3085 127.324 10.3085H127.619C127.699 10.3085 127.765 10.2829 127.816 10.2319C127.867 10.1808 127.892 10.1152 127.892 10.035C127.892 9.95478 127.867 9.88915 127.816 9.8381C127.765 9.78705 127.699 9.76153 127.619 9.76153H127.324ZM127.389 12.0586V13.2072H132.793V14.7386L125.333 14.7495V12.0586H127.389ZM141.765 6.43621V10.1553H139.72V6.43621H141.765ZM136.504 9.40056C136.22 9.6485 135.888 9.8381 135.509 9.96936C135.137 10.0933 134.743 10.1553 134.327 10.1553L133.89 8.84269C134.334 8.84269 134.71 8.68226 135.016 8.36139C135.323 8.03324 135.476 7.54829 135.476 6.90657V6.54559H137.521V6.90657C137.521 7.54829 137.674 8.03324 137.981 8.36139C138.287 8.68226 138.663 8.84269 139.107 8.84269L138.67 10.1553C138.254 10.1553 137.857 10.0933 137.478 9.96936C137.106 9.8381 136.781 9.6485 136.504 9.40056ZM136.384 13.5463H141.875V14.7495H134.327V12.0149H139.72V11.6867H134.327V10.4835H141.765V13.2181H136.384V13.5463ZM152.014 6.43621H154.07V11.1398H152.014V6.43621ZM148.863 10.1772C148.557 10.4835 148.203 10.7205 147.802 10.8882C147.408 11.0559 147 11.1398 146.577 11.1398L146.249 9.499C146.628 9.499 146.956 9.39326 147.233 9.18179C147.511 8.97031 147.693 8.63121 147.78 8.1645H146.413V6.52372H151.292V8.1645H149.935C150.023 8.63121 150.205 8.97031 150.482 9.18179C150.759 9.39326 151.087 9.499 151.467 9.499L151.138 11.1398C150.716 11.1398 150.303 11.0559 149.902 10.8882C149.509 10.7205 149.162 10.4835 148.863 10.1772ZM146.632 13.2728V11.632H154.07V14.7495H152.014V13.2728H146.632ZM163.066 6.41433V10.9648H161.01V9.54276H160.233C160.102 10.0168 159.828 10.385 159.413 10.6476C159.004 10.9028 158.483 11.0304 157.849 11.0304C157.076 11.0304 156.47 10.8444 156.033 10.4725C155.602 10.0933 155.387 9.56828 155.387 8.89738V8.56923C155.387 7.89833 155.602 7.37692 156.033 7.00501C156.47 6.62581 157.076 6.43621 157.849 6.43621C158.461 6.43621 158.972 6.56018 159.38 6.80812C159.788 7.04877 160.065 7.39515 160.211 7.84728H161.01V6.41433H163.066ZM158.231 8.45984C158.231 8.33587 158.199 8.24107 158.133 8.17544C158.067 8.10981 157.972 8.07699 157.849 8.07699C157.732 8.07699 157.637 8.10981 157.564 8.17544C157.498 8.24107 157.466 8.33587 157.466 8.45984V9.00677C157.466 9.12345 157.498 9.21825 157.564 9.29117C157.637 9.3568 157.732 9.38962 157.849 9.38962C157.972 9.38962 158.067 9.3568 158.133 9.29117C158.199 9.21825 158.231 9.12345 158.231 9.00677V8.45984ZM161.021 11.7086V11.3039H163.066V14.7495H155.628V11.3039H157.684V11.7086H161.021ZM161.021 13.4369V13.0212H157.684V13.4369H161.021ZM167.193 8.75518C167.2 9.68131 167.24 10.4142 167.313 10.9538C167.386 11.4935 167.514 11.9164 167.696 12.2227C167.886 12.5217 168.156 12.7441 168.506 12.89L167.959 14.4214C167.652 14.3703 167.361 14.2354 167.084 14.0166C166.806 13.7906 166.559 13.4806 166.34 13.0869C166.121 13.4806 165.869 13.7906 165.585 14.0166C165.308 14.2354 165.016 14.3703 164.71 14.4214L164.163 12.89C164.513 12.7441 164.779 12.5217 164.961 12.2227C165.151 11.9164 165.282 11.4935 165.355 10.9538C165.428 10.4142 165.468 9.68131 165.476 8.75518H164.447V7.20191H165.421V6.32682H167.248V7.20191H168.221V8.75518H167.193ZM168.549 9.60839V6.43621H170.376V14.6401H168.549V11.2492H167.674V9.60839H168.549ZM170.704 6.43621H172.542V14.7495H170.704V6.43621ZM178.779 6.76436V8.09887H173.857V6.76436H175.29V6.21744H177.346V6.76436H178.779ZM181.536 6.43621V11.1398H179.479V9.9803H178.637C178.564 10.3595 178.367 10.6476 178.046 10.8444C177.733 11.0413 177.328 11.1398 176.832 11.1398H175.804C175.235 11.1398 174.787 11.0122 174.458 10.7569C174.13 10.5017 173.966 10.1334 173.966 9.65214C173.966 9.17085 174.13 8.80623 174.458 8.55829C174.787 8.31035 175.235 8.18638 175.804 8.18638H176.832C177.255 8.18638 177.616 8.2593 177.915 8.40515C178.214 8.5437 178.426 8.75154 178.549 9.02865V8.39421H179.479V6.43621H181.536ZM176.581 9.85998C176.661 9.85998 176.726 9.84174 176.777 9.80528C176.828 9.76153 176.854 9.70684 176.854 9.6412C176.854 9.57557 176.828 9.52453 176.777 9.48806C176.726 9.44431 176.661 9.42243 176.581 9.42243H176.066C175.986 9.42243 175.921 9.44431 175.87 9.48806C175.818 9.52453 175.793 9.57557 175.793 9.6412C175.793 9.70684 175.818 9.76153 175.87 9.80528C175.921 9.84174 175.986 9.85998 176.066 9.85998H176.581ZM174.076 14.7495V11.4679H181.536V14.7495H174.076ZM176.132 12.9009V13.3166H179.479V12.9009H176.132Z" fill="#FFDD00"/>
<defs>
<linearGradient id="paint0_linear_1_4" x1="85.035" y1="7.79839" x2="101.94" y2="13.8802" gradientUnits="userSpaceOnUse">
<stop offset="0.490385" stop-color="#006FFF"/>
<stop offset="1" stop-color="#004299"/>
</linearGradient>
</defs>
</svg>
